<svg width="698" height="313" viewBox="0 0 698 313" fill="none"
    xmlns="http://www.w3.org/2000/svg">

    <!-- Stains background color  -->
    <g fill="#5CE1E6">
        <path d="M330.935 30.4595C299.622 36.3021 104.308 78.1169 100.949 79.6062C94.7105 82.4703 86.0726 90.9478 82.5934 97.8215L79.5941 103.55V160.83V218.111L82.9533 224.984C86.9124 233.118 96.0302 241.825 103.349 244.345C113.546 248.011 327.696 293.377 340.772 294.638C363.087 296.814 370.165 295.669 490.497 269.778C553.722 256.145 602.791 245.147 606.15 243.658C614.188 240.106 621.986 232.545 625.825 224.641L629.064 218.111V161.403V104.695L625.825 98.1652C622.226 90.7187 614.308 82.6994 607.709 79.7208C605.19 78.5752 552.882 67.0045 491.337 54.0591L379.523 30.4595L356.729 30.1158C344.252 30.0012 332.614 30.1158 330.935 30.4595Z"/>
    </g>
    <!-- text color -->
    <g fill="black">
        <path d="M402.918 70.5559C398.599 71.3578 395.84 74.1073 394.28 79.3771C392.36 85.7926 389.121 89.0003 380.723 92.6662C369.926 97.4778 365.727 103.206 365.727 113.402C365.727 118.557 366.207 119.703 369.806 123.139C373.285 126.462 374.724 127.035 379.403 127.035C383.962 127.035 385.642 126.347 389.361 123.139C391.88 121.077 396.559 117.411 399.799 115.12L405.557 110.996L417.434 111.111C430.511 111.34 433.271 110.309 432.671 105.383C432.191 101.144 426.912 99.1962 415.155 98.738C403.038 98.2797 397.519 96.3322 396.439 92.0934C395.36 87.8547 397.999 85.2197 407.477 80.8664C411.676 78.9189 415.395 76.6277 415.755 75.7112C417.194 72.2743 409.756 69.4103 402.918 70.5559Z" />
        <path d="M175.931 110.194C168.613 112.256 162.375 116.839 159.255 122.681C157.216 126.462 156.856 128.982 157.216 134.596C157.816 143.875 161.775 149.489 173.052 157.393C193.447 171.599 196.087 173.661 198.606 177.327C202.805 183.284 202.445 192.22 198.006 197.031C195.127 200.125 193.567 200.812 187.809 201.27C184.09 201.499 179.771 201.499 178.091 201.041C169.933 199.094 162.495 188.096 161.055 175.952C160.575 171.599 159.735 169.422 158.656 169.422C157.336 169.422 156.976 171.484 156.976 177.671C156.976 182.253 156.616 190.272 156.136 195.428C155.536 203.791 155.656 204.936 157.336 204.936C158.416 204.936 159.615 203.676 160.095 202.072C160.935 198.864 163.094 198.406 166.934 200.927C171.852 204.02 184.689 206.425 192.368 205.738C212.523 203.791 223.2 194.855 223.08 179.733C223.08 167.589 218.641 162.319 196.207 147.77C189.008 143.073 181.93 137.689 180.37 135.741C174.132 127.951 175.691 117.641 183.73 114.089C196.207 108.361 208.564 116.266 213.363 132.992C216.722 144.677 218.161 142.844 218.161 127.264C218.161 119.703 218.521 112.714 218.881 111.683C219.361 110.423 219.001 109.85 217.682 109.85C216.602 109.85 215.162 111.111 214.562 112.714C213.123 116.266 212.643 116.266 205.085 112.485C197.766 108.934 184.689 107.903 175.931 110.194Z" />
        <path d="M255.353 115.808C253.673 116.38 249.714 117.297 246.355 117.755L240.356 118.442L239.996 126.691L239.636 135.054H234.358C230.399 135.054 228.959 135.512 228.959 136.772C228.959 138.032 230.399 138.491 234.238 138.491H239.516L239.996 166.215C240.476 197.146 241.076 199.666 248.514 203.447C254.153 206.311 265.07 206.082 269.389 203.103C272.749 200.697 278.147 193.938 278.147 192.22C278.147 189.929 275.028 191.418 273.108 194.626C271.429 197.375 270.229 198.063 266.87 198.063C263.871 198.063 262.311 197.375 261.351 195.886C260.631 194.511 260.151 182.826 260.151 166.1V138.491H268.669C274.908 138.491 277.068 138.147 276.708 137.001C276.348 136.199 273.228 135.512 268.19 135.283L260.151 134.939V124.743C260.151 119.015 259.792 114.433 259.312 114.547C258.712 114.547 257.032 115.12 255.353 115.808Z" />
        <path d="M364.887 134.481C365.127 135.054 366.326 135.856 367.646 136.085C368.846 136.314 370.286 137.001 370.765 137.803C372.205 139.865 371.965 195.542 370.525 198.177C369.806 199.323 368.126 200.354 366.926 200.354C365.607 200.354 364.527 200.812 364.527 201.499C364.527 202.187 370.525 202.645 380.123 202.645C389.721 202.645 395.72 202.187 395.72 201.499C395.72 200.812 394.76 200.354 393.56 200.354C388.761 200.354 388.521 198.75 388.521 167.36V137.231L392.12 136.085C394.16 135.398 395.72 134.481 395.72 134.137C395.72 133.679 388.761 133.335 380.123 133.335C370.286 133.335 364.647 133.794 364.887 134.481Z" />
        <path d="M301.542 134.939C296.503 136.199 292.544 138.262 288.705 141.698C286.066 143.99 285.346 145.708 285.346 149.374C285.346 155.56 289.185 159.341 295.543 159.341C305.501 159.341 309.58 148.458 302.142 141.928C298.543 138.72 298.543 138.605 301.182 137.803C306.581 136.199 313.059 136.887 315.699 139.522C317.858 141.584 318.458 143.646 318.698 151.436C319.298 162.892 319.058 163.121 303.461 168.849C290.504 173.546 286.066 176.296 283.426 181.107C280.907 185.804 281.627 195.886 284.866 199.323C291.944 206.998 306.701 206.54 315.579 198.521L318.698 195.542L320.377 198.75C322.657 203.561 326.736 205.165 334.894 204.478C341.492 204.02 347.731 201.499 347.731 199.208C347.731 198.635 345.931 198.521 343.652 198.864L339.573 199.437L339.093 173.317C338.733 143.99 338.013 141.469 329.735 136.887C325.296 134.367 308.38 133.221 301.542 134.939ZM316.418 193.022C313.059 196.459 306.941 196.688 304.061 193.595C301.062 190.501 300.462 184.315 302.502 179.618C303.581 177.098 306.941 173.546 311.26 170.453L318.338 165.298L318.698 177.785C318.938 189.47 318.818 190.616 316.418 193.022Z" />
        <path d="M438.309 135.283C435.07 135.627 428.712 136.085 424.273 136.085C419.714 136.199 416.115 136.658 416.115 137.345C416.115 137.918 416.954 138.491 417.914 138.491C418.874 138.491 420.794 139.522 422.113 140.782C424.393 142.959 424.513 144.562 424.513 170.453C424.513 198.979 424.393 199.552 419.234 200.468C417.914 200.697 416.715 201.614 416.355 202.301C415.995 203.447 420.194 203.791 434.59 203.791C453.066 203.791 457.265 202.874 450.307 200.354C448.627 199.781 446.707 197.948 446.108 196.344C444.428 191.991 444.668 153.727 446.468 148.801C448.027 144.448 454.506 139.636 458.825 139.636C460.384 139.636 462.784 140.667 464.103 141.928C466.383 144.104 466.503 145.479 466.263 171.484L465.903 198.635L462.664 200.125C456.185 203.103 459.185 203.791 478.02 203.791C492.177 203.791 496.616 203.447 496.256 202.416C495.896 201.614 494.456 200.697 492.777 200.354C487.618 199.208 486.898 195.886 486.898 169.995C486.898 149.374 486.538 145.364 484.739 141.928C479.22 131.273 457.625 131.159 448.267 141.813L445.028 145.364L444.668 139.98L444.308 134.481L438.309 135.283Z" />
        <path d="M516.291 135.97C508.733 139.407 505.734 143.302 505.134 150.405C504.414 158.539 507.053 163.58 515.571 170.339C533.807 185.003 536.806 189.127 534.647 196.459C532.607 204.134 520.13 204.249 514.012 196.573C512.332 194.511 510.412 190.272 509.573 187.179C508.853 183.972 508.013 180.764 507.773 179.962C506.933 176.869 504.894 178.931 504.894 182.94C504.894 185.461 504.534 191.303 504.174 196.115C503.454 203.676 503.574 204.936 505.254 204.936C506.333 204.936 507.533 203.905 507.893 202.645C508.853 199.781 509.693 199.781 517.251 202.874C533.447 209.633 553.362 202.645 556.002 189.47C557.801 179.962 553.362 173.203 538.006 162.09C523.129 151.436 519.53 145.135 525.289 139.636C528.288 136.772 536.806 136.543 540.765 139.178C543.645 141.126 549.283 151.322 549.283 154.758C549.283 155.904 550.123 156.82 551.083 156.82C552.522 156.82 552.882 154.758 552.882 145.364C552.882 134.596 551.683 130.93 549.883 136.199C548.923 139.064 547.244 139.064 541.965 136.543C535.846 133.565 522.29 133.335 516.291 135.97Z" />
    </g>
    <!-- date color -->
    <g fill="black">
        <path fill="black" d="M317.992 236.457C316.931 236.166 316.158 235.808 315.672 235.387C315.191 234.959 314.951 234.435 314.951 233.811C314.951 233.106 315.245 232.523 315.834 232.063C316.427 231.6 317.196 231.368 318.14 231.368C318.785 231.368 319.359 231.487 319.861 231.725C320.368 231.962 320.759 232.291 321.034 232.709C321.313 233.127 321.452 233.586 321.452 234.082H320.209C320.209 233.54 320.028 233.116 319.667 232.808C319.307 232.496 318.797 232.34 318.14 232.34C317.53 232.34 317.054 232.47 316.71 232.728C316.37 232.982 316.201 233.337 316.201 233.792C316.201 234.157 316.362 234.468 316.685 234.722C317.011 234.972 317.563 235.201 318.34 235.411C319.122 235.62 319.732 235.852 320.17 236.106C320.612 236.356 320.939 236.649 321.15 236.986C321.365 237.323 321.471 237.718 321.471 238.174C321.471 238.899 321.175 239.482 320.582 239.921C319.99 240.356 319.197 240.573 318.205 240.573C317.56 240.573 316.959 240.456 316.4 240.222C315.842 239.985 315.41 239.661 315.106 239.251C314.805 238.841 314.655 238.374 314.655 237.853H315.898C315.898 238.395 316.106 238.823 316.523 239.14C316.944 239.451 317.505 239.607 318.205 239.607C318.857 239.607 319.359 239.48 319.707 239.225C320.055 238.971 320.229 238.625 320.229 238.185C320.229 237.747 320.067 237.409 319.745 237.17C319.422 236.929 318.838 236.69 317.992 236.457ZM325.842 240.45H324.605V231.491H325.842V240.45ZM336.773 240.45H335.53L330.806 233.547V240.45H329.562V231.491H330.806L335.542 238.426V231.491H336.773V240.45ZM347.323 237.608C347.208 238.555 346.839 239.287 346.222 239.804C345.607 240.317 344.789 240.573 343.766 240.573C342.658 240.573 341.768 240.194 341.099 239.435C340.433 238.676 340.099 237.661 340.099 236.389V235.527C340.099 234.695 340.254 233.963 340.564 233.331C340.877 232.699 341.32 232.216 341.891 231.879C342.463 231.538 343.124 231.368 343.876 231.368C344.872 231.368 345.671 231.635 346.273 232.169C346.874 232.697 347.225 233.431 347.323 234.37H346.08C345.972 233.657 345.738 233.14 345.377 232.82C345.021 232.501 344.52 232.34 343.876 232.34C343.086 232.34 342.464 232.619 342.013 233.177C341.567 233.735 341.344 234.528 341.344 235.558V236.426C341.344 237.398 341.556 238.172 341.982 238.745C342.407 239.321 343.002 239.607 343.766 239.607C344.453 239.607 344.98 239.459 345.345 239.164C345.714 238.865 345.959 238.346 346.08 237.608H347.323ZM355.773 236.309H351.707V239.484H356.43V240.45H350.47V231.491H356.365V232.463H351.707V235.343H355.773V236.309ZM369.986 240.45H363.838V239.632L367.086 236.186C367.567 235.665 367.897 235.242 368.078 234.918C368.263 234.59 368.355 234.252 368.355 233.903C368.355 233.436 368.206 233.052 367.91 232.753C367.614 232.453 367.219 232.304 366.725 232.304C366.132 232.304 365.67 232.465 365.339 232.789C365.013 233.109 364.85 233.557 364.85 234.131H363.657C363.657 233.306 363.934 232.639 364.488 232.131C365.048 231.622 365.793 231.368 366.725 231.368C367.597 231.368 368.286 231.588 368.793 232.026C369.299 232.462 369.554 233.041 369.554 233.768C369.554 234.65 368.965 235.7 367.788 236.918L365.274 239.521H369.986V240.45ZM378.583 236.63C378.583 237.962 378.344 238.953 377.868 239.601C377.39 240.25 376.645 240.573 375.631 240.573C374.631 240.573 373.889 240.258 373.408 239.625C372.927 238.989 372.678 238.042 372.661 236.783V235.263C372.661 233.946 372.9 232.968 373.376 232.328C373.853 231.689 374.601 231.368 375.618 231.368C376.628 231.368 377.371 231.678 377.849 232.297C378.325 232.912 378.57 233.864 378.583 235.152V236.63ZM377.39 235.073C377.39 234.108 377.249 233.407 376.966 232.968C376.682 232.525 376.233 232.304 375.618 232.304C375.009 232.304 374.564 232.523 374.285 232.961C374.006 233.401 373.862 234.076 373.853 234.986V236.807C373.853 237.775 373.999 238.491 374.291 238.955C374.588 239.415 375.034 239.644 375.631 239.644C376.221 239.644 376.656 239.427 376.939 238.992C377.227 238.556 377.378 237.873 377.39 236.937V235.073ZM387.709 240.45H381.562V239.632L384.809 236.186C385.29 235.665 385.622 235.242 385.801 234.918C385.986 234.59 386.079 234.252 386.079 233.903C386.079 233.436 385.931 233.052 385.635 232.753C385.338 232.453 384.942 232.304 384.448 232.304C383.856 232.304 383.394 232.465 383.064 232.789C382.736 233.109 382.573 233.557 382.573 234.131H381.382C381.382 233.306 381.659 232.639 382.213 232.131C382.771 231.622 383.516 231.368 384.448 231.368C385.32 231.368 386.01 231.588 386.516 232.026C387.024 232.462 387.277 233.041 387.277 233.768C387.277 234.65 386.689 235.7 385.512 236.918L382.999 239.521H387.709V240.45ZM394.341 240.45H393.143V232.863L390.739 233.706V232.673L394.155 231.448H394.341V240.45Z" />
    </g>
</svg>
